# xmcd CD database file
#
# Track frame offsets:
#	150
#	8082
#	34170
#	79180
#	104137
#	135125
#	146435
#	190672
#	211570
#	231910
#
# Disc length: 3618 seconds
#
# Revision: 5
# Processed by: cddbd v1.5.2PL0 Copyright (c) Steve Scherf et al.
# Submitted via: CDex 1.70beta2
#
DISCID=790e200a
DTITLE=Don Byron - Music for Six Musicians
DYEAR=1995
DGENRE=Jazz
TTITLE0="Uh-Oh, Chango!" - White History Month
TTITLE1=Shelby Steele would be mowing your lawn
TTITLE2=(The press made) Rodney King (responsible for the LA riots)
TTITLE3="I'll chill on the Marley tapes..."
TTITLE4=SEX/WORK (Clarence/Anita)
TTITLE5=La Estrellita
TTITLE6="...that sucking sound..." (for Ross Perot)
TTITLE7=Crown Heights
TTITLE8=The Allure of Entanglement
TTITLE9=The Importance of being SHARPTON
EXTD=Don Byron (clarinet, bass clarinet), Graham Haynes (cornet), Edsel Gomez (piano), Kenny Davis (electric bass), Jerry Gonzalez (congas), Ben Wittman (drums]\n\nwith: Sadiq (poetry), Bill Frisell (guitar), Lonnie Plaxico (bass), Ralph Peterson Jr. (dr
EXTD=ums), Andy Gonzalez (acoustic bass]\n\nNonesuch Records (1995]\n YEAR: 1995
EXTT0=
EXTT1=
EXTT2=
EXTT3=
EXTT4=
EXTT5=
EXTT6=
EXTT7=
EXTT8=
EXTT9=
PLAYORDER=
